<svg width="32" height="32" viewBox="0 0 32 32" fill="none" xmlns="http://www.w3.org/2000/svg">
<g clip-path="url(#clip0_149_16663)">
<rect width="32" height="32" rx="6" fill="#F5F8FA"/>
<path d="M16.7427 18.7268C16.4674 19.0135 16.0896 19.1792 15.6923 19.1875L13.4169 19.2353L13.465 16.9447C13.4731 16.5564 13.6316 16.1864 13.907 15.9125L19.4441 10.4071C20.0303 9.82418 20.9777 9.82554 21.5623 10.4101L22.1383 10.9861C22.7157 11.5635 22.7252 12.4967 22.1596 13.0857L16.7427 18.7268Z" fill="#A1A5B7"/>
<path opacity="0.3" d="M17.2668 9.99967C17.2668 10.3679 16.9684 10.6663 16.6002 10.6663H12.0002C11.2638 10.6663 10.6668 11.2633 10.6668 11.9997V19.9997C10.6668 20.7361 11.2638 21.333 12.0002 21.333H20.0002C20.7365 21.333 21.3335 20.7361 21.3335 19.9997V16.6663C21.3335 16.2982 21.632 15.9997 22.0002 15.9997C22.3684 15.9997 22.6668 16.2982 22.6668 16.6663V19.9997C22.6668 21.4724 21.4729 22.6663 20.0002 22.6663H12.0002C10.5274 22.6663 9.3335 21.4724 9.3335 19.9997V11.9997C9.3335 10.5269 10.5274 9.33301 12.0002 9.33301H16.6002C16.9684 9.33301 17.2668 9.63148 17.2668 9.99967Z" fill="#A1A5B7"/>
</g>
<defs>
<clipPath id="clip0_149_16663">
<rect width="32" height="32" fill="white"/>
</clipPath>
</defs>
</svg>
