<svg width="16" height="16" viewBox="0 0 16 16" fill="none" xmlns="http://www.w3.org/2000/svg">
<mask id="mask0_714_12707" style="mask-type:luminance" maskUnits="userSpaceOnUse" x="0" y="0" width="16" height="16">
<rect width="16" height="16" fill="white"/>
</mask>
<g mask="url(#mask0_714_12707)">
<path opacity="0.25" d="M13.3327 2.66699V12.667C13.3327 13.7716 12.4373 14.667 11.3327 14.667H4.66602C3.56145 14.667 2.66602 13.7716 2.66602 12.667V2.66699H13.3327Z" fill="#7E8299"/>
<path d="M7.52925 4.86225L5.52925 6.86225C5.2689 7.1226 5.2689 7.54471 5.52925 7.80506C5.7896 8.06541 6.21171 8.06541 6.47206 7.80506L7.33398 6.94313V11.3337C7.33398 11.7018 7.63246 12.0003 8.00065 12.0003C8.36884 12.0003 8.66732 11.7018 8.66732 11.3337V6.94313L9.52925 7.80506C9.7896 8.06541 10.2117 8.06541 10.4721 7.80506C10.7324 7.54471 10.7324 7.1226 10.4721 6.86225L8.47206 4.86225C8.21171 4.6019 7.7896 4.6019 7.52925 4.86225Z" fill="#7E8299"/>
<path d="M2.00065 1.33301H14.0007C14.3688 1.33301 14.6673 1.63148 14.6673 1.99967C14.6673 2.36786 14.3688 2.66634 14.0007 2.66634H2.00065C1.63246 2.66634 1.33398 2.36786 1.33398 1.99967C1.33398 1.63148 1.63246 1.33301 2.00065 1.33301Z" fill="#7E8299"/>
</g>
</svg>
