<svg width="16" height="16" viewBox="0 0 16 16" fill="none" xmlns="http://www.w3.org/2000/svg">
<mask id="mask0_714_12716" style="mask-type:luminance" maskUnits="userSpaceOnUse" x="0" y="0" width="16" height="16">
<rect width="16" height="16" fill="white"/>
</mask>
<g mask="url(#mask0_714_12716)">
<path opacity="0.25" d="M4 0.666992H10.5049C11.0353 0.666992 11.544 0.877706 11.9191 1.25278L13.4142 2.74787C13.7893 3.12295 14 3.63165 14 4.16209V13.3337C14 14.4382 13.1046 15.3337 12 15.3337H4C2.89543 15.3337 2 14.4382 2 13.3337V2.66699C2 1.56242 2.89543 0.666992 4 0.666992Z" fill="#7E8299"/>
<path d="M10.5945 0.666992C11.0676 0.666992 11.5212 0.854908 11.8557 1.1894L13.4776 2.81125C13.8121 3.14574 14 3.59941 14 4.07245C14 4.40081 13.7338 4.66699 13.4055 4.66699H10.6667C10.2985 4.66699 10 4.36852 10 4.00033V1.26153C10 0.933175 10.2662 0.666992 10.5945 0.666992Z" fill="#7E8299"/>
<path d="M8.47206 11.8047L10.4721 9.80474C10.7324 9.54439 10.7324 9.12228 10.4721 8.86193C10.2117 8.60158 9.7896 8.60158 9.52925 8.86193L8.66732 9.72386V6.66667C8.66732 6.29848 8.36884 6 8.00065 6C7.63246 6 7.33398 6.29848 7.33398 6.66667V9.72386L6.47205 8.86193C6.21171 8.60158 5.7896 8.60158 5.52925 8.86193C5.2689 9.12228 5.2689 9.54439 5.52925 9.80474L7.52925 11.8047C7.72568 12.0012 8.01419 12.0494 8.25584 11.9494C8.33447 11.9169 8.40814 11.8687 8.47206 11.8047Z" fill="#7E8299"/>
</g>
</svg>
