<svg width="32" height="32" viewBox="0 0 32 32" fill="none" xmlns="http://www.w3.org/2000/svg">
<g clip-path="url(#clip0_22_620)">
<rect width="32" height="32" rx="6" fill="#F5F8FA"/>
<g clip-path="url(#clip1_22_620)">
<path d="M10 10H22V19H10.8775L10 19.8775V10ZM10 8.5C9.175 8.5 8.5075 9.175 8.5075 10L8.5 23.5L11.5 20.5H22C22.825 20.5 23.5 19.825 23.5 19V10C23.5 9.175 22.825 8.5 22 8.5H10ZM11.5 16H17.5V17.5H11.5V16ZM11.5 13.75H20.5V15.25H11.5V13.75ZM11.5 11.5H20.5V13H11.5V11.5Z" fill="#A1A5B7"/>
</g>
</g>
<defs>
<clipPath id="clip0_22_620">
<rect width="32" height="32" fill="white"/>
</clipPath>
<clipPath id="clip1_22_620">
<rect width="18" height="18" fill="white" transform="translate(7 7)"/>
</clipPath>
</defs>
</svg>
